#!OML:ASF X:\für Bonn\!DataBase\2005_08_10_Bjorn_Final\c3d\bjorn.ASF
:FULLY-SPECIFIED
:DEGREES
138
root -19.6463 18.8035 -10.903 -355.886 367.386 -368.719
lowerback 1.23727 7.31546 9.42211
upperback 7.81232 9.64662 -1.20405
thorax 9.49407 5.51332 -5.65763
lowerneck -8.7684 -0.534879 4.84713
upperneck 1.78968 -1.10676 -2.8992
head 2.05249 -0.592809 -1.82759
rclavicle 1.39149e-015 1.03368e-014
rhumerus -20.8208 16.0535 -97.1789
rradius 92.6435
rwrist 4.77343
rhand -34.1581 31.9999
rfingers 7.12502
rthumb -7.33217 2.14694
lclavicle 1.39149e-015 1.03368e-014
lhumerus -55.6215 -20.0574 97.0658
lradius 78.9279
lwrist -13.4572
lhand -56.7253 -34.6806
lfingers 7.12502
lthumb -29.0292 -6.92191
rfemur 12.2369 -6.68996 15.5619
rtibia 21.2494
rfoot -1.79014 14.4599
rtoes -24.8102
lfemur -39.413 8.72785 -22.1561
ltibia 48.8087
lfoot -16.7497 -0.484786
ltoes -14.4977
139
root -19.5371 18.8687 -10.6179 -355.883 367.613 -368.586
lowerback 0.960049 7.55276 9.36726
upperback 7.65284 9.96999 -1.49539
thorax 9.58877 5.67955 -5.86868
lowerneck -8.61844 -0.686964 4.72717
upperneck 1.95772 -1.31067 -2.39432
head 2.07144 -0.678647 -1.64878
rclavicle 2.31783e-013 -1.90833e-014
rhumerus -22.23 16.2683 -97.9147
rradius 92.0848
rwrist 5.20544
rhand -34.23 31.7102
rfingers 7.12502
rthumb -7.40154 1.85965
lclavicle 2.31783e-013 -1.90833e-014
lhumerus -55.1708 -19.7065 96.7531
lradius 78.8146
lwrist -14.1063
lhand -56.339 -35.6678
lfingers 7.12502
lthumb -28.6602 -7.84608
rfemur 12.7194 -6.91242 14.8887
rtibia 21.4705
rfoot 0.922291 13.846
rtoes -25.914
lfemur -39.2251 9.15816 -23.001
ltibia 45.9977
lfoot -15.8561 -0.745223
ltoes -13.5565
140
root -19.4294 18.9229 -10.335 -355.895 367.852 -368.481
lowerback 0.720358 7.77262 9.29774
upperback 7.49767 10.2721 -1.75823
thorax 9.65569 5.83214 -6.04734
lowerneck -8.48722 -0.836401 4.57092
upperneck 2.09564 -1.50722 -1.93425
head 2.08588 -0.762704 -1.47869
rclavicle 1.15295e-014 -9.14409e-015
rhumerus -23.5873 16.4107 -98.6411
rradius 91.2771
rwrist 5.44517
rhand -34.0067 31.4155
rfingers 7.12502
rthumb -7.18607 1.55754
lclavicle 1.15295e-014 -9.14409e-015
lhumerus -54.6689 -19.2842 96.4619
lradius 78.6661
lwrist -14.7985
lhand -55.7705 -36.1155
lfingers 7.12502
lthumb -28.1169 -8.20329
rfemur 12.8661 -7.00118 14.3048
rtibia 22.2971
rfoot 3.2176 13.3404
rtoes -27.5289
lfemur -38.9646 9.66515 -23.8086
ltibia 43.4408
lfoot -14.9192 -0.997884
ltoes -10.668
141
root -19.3195 18.9693 -10.0552 -355.926 368.066 -368.417
lowerback 0.53577 7.985 9.26956
upperback 7.34276 10.5671 -2.00955
thorax 9.69804 5.98333 -6.24264
lowerneck -8.35778 -0.981231 4.44819
upperneck 2.18021 -1.69901 -1.54081
head 2.08453 -0.846571 -1.33614
rclavicle -2.38542e-014 1.27222e-014
rhumerus -24.9046 16.4178 -99.3347
rradius 90.3161
rwrist 5.54557
rhand -33.4559 31.1301
rfingers 7.12502
rthumb -6.65434 1.25466
lclavicle -2.38542e-014 1.27222e-014
lhumerus -54.1669 -18.8287 96.185
lradius 78.5611
lwrist -15.3819
lhand -55.1557 -36.6855
lfingers 7.12502
lthumb -27.5291 -8.67823
rfemur 12.8128 -6.99843 13.7772
rtibia 23.4922
rfoot 5.39487 13.0005
rtoes -29.5613
lfemur -38.5836 10.0644 -24.4645
ltibia 41.0959
lfoot -13.9081 -1.21976
ltoes -6.42742
142
root -19.2095 19.002 -9.77931 -355.964 368.264 -368.433
lowerback 0.341753 8.15208 9.29595
upperback 7.18839 10.796 -2.23349
thorax 9.74118 6.10463 -6.44452
lowerneck -8.05802 -1.07484 4.39219
upperneck 2.08713 -1.8163 -1.25258
head 1.99641 -0.89777 -1.23202
rclavicle -8.62725e-014 4.85035e-014
rhumerus -26.1944 16.4581 -100.03
rradius 89.2033
rwrist 5.63906
rhand -32.8632 30.6758
rfingers 7.12502
rthumb -6.08217 0.78312
lclavicle -8.62725e-014 4.85035e-014
lhumerus -53.6835 -18.2255 95.9101
lradius 78.6257
lwrist -15.8031
lhand -54.5644 -36.9754
lfingers 7.12502
lthumb -26.9634 -8.87935
rfemur 12.4832 -6.80274 13.3957
rtibia 25.2133
rfoot 7.17397 12.8073
rtoes -31.272
lfemur -38.2116 10.6671 -25.1469
ltibia 39.0803
lfoot -12.7769 -1.13643
ltoes -5.11263
143
root -19.1014 19.0179 -9.50579 -356.042 368.491 -368.511
lowerback 0.12131 8.26361 9.36509
upperback 7.07152 10.945 -2.44213
thorax 9.83358 6.19218 -6.6568
lowerneck -7.72871 -1.11576 4.51093
upperneck 1.92799 -1.87098 -1.12864
head 1.88259 -0.922065 -1.20801
rclavicle 5.08889e-014 2.38542e-015
rhumerus -27.4124 16.4782 -100.701
rradius 87.8671
rwrist 5.90235
rhand -32.3585 30.2756
rfingers 7.12502
rthumb -5.59484 0.369459
lclavicle 5.08889e-014 2.38542e-015
lhumerus -53.1634 -17.5076 95.5926
lradius 78.8514
lwrist -16.0865
lhand -54.0959 -36.8867
lfingers 7.12502
lthumb -26.5152 -8.72218
rfemur 11.9569 -6.51295 13.1357
rtibia 27.3873
rfoot 8.72372 12.6787
rtoes -32.0124
lfemur -37.8601 11.2569 -25.7464
ltibia 37.432
lfoot -11.5493 -0.930412
ltoes -4.81488
144
root -18.999 19.0114 -9.23417 -356.264 368.756 -368.391
lowerback 0.0369063 8.31946 9.21094
upperback 7.01758 11.0413 -2.67821
thorax 9.86298 6.24133 -6.80467
lowerneck -7.30398 -1.14305 4.72337
upperneck 1.71933 -1.90522 -1.11237
head 1.73586 -0.939307 -1.23213
rclavicle -9.93923e-015 1.90833e-014
rhumerus -28.4904 16.3709 -101.276
rradius 86.239
rwrist 6.35828
rhand -32.0094 29.9949
rfingers 7.12502
rthumb -5.25781 0.0800947
lclavicle -9.93923e-015 1.90833e-014
lhumerus -52.6688 -16.7554 95.2763
lradius 79.2368
lwrist -16.12
lhand -53.6761 -36.8095
lfingers 7.12502
lthumb -26.1133 -8.58495
rfemur 11.4723 -6.20298 12.6582
rtibia 29.9173
rfoot 10.0586 12.592
rtoes -31.8128
lfemur -37.3771 11.8453 -26.5093
ltibia 36.1562
lfoot -10.4103 -0.693991
ltoes -5.05882
145
root -18.9 18.9859 -8.96351 -356.5 369.15 -368.473
lowerback -0.133587 8.30226 9.20191
upperback 6.97922 11.0183 -2.81504
thorax 9.94472 6.23842 -6.92775
lowerneck -6.87631 -1.14371 4.92639
upperneck 1.54402 -1.89667 -1.22264
head 1.60132 -0.938243 -1.29415
rclavicle -6.83819e-014 3.33958e-014
rhumerus -29.5237 16.2554 -101.698
rradius 84.5275
rwrist 6.9181
rhand -31.7628 29.5446
rfingers 7.12502
rthumb -5.01968 -0.375926
lclavicle -6.83819e-014 3.33958e-014
lhumerus -52.1514 -15.8866 94.9914
lradius 79.7194
lwrist -16.0271
lhand -53.3819 -36.3731
lfingers 7.12502
lthumb -25.8315 -8.10719
rfemur 10.8954 -5.91479 12.4617
rtibia 32.6805
rfoot 11.0699 12.507
rtoes -30.8688
lfemur -37.015 12.3679 -27.0405
ltibia 35.2796
lfoot -9.35192 -0.576584
ltoes -5.50229
146
root -18.7963 18.9486 -8.69176 -356.826 369.593 -368.449
lowerback -0.242753 8.24382 9.09921
upperback 6.99288 10.9479 -2.94011
thorax 10.015 6.20721 -7.00202
lowerneck -6.46263 -1.14225 4.97236
upperneck 1.41979 -1.87542 -1.23602
head 1.48809 -0.928918 -1.29813
rclavicle 4.77083e-014 3.18055e-015
rhumerus -30.5564 16.0015 -102.044
rradius 82.7376
rwrist 7.49783
rhand -31.4707 29.1553
rfingers 7.12502
rthumb -4.73767 -0.771681
lclavicle 4.77083e-014 3.18055e-015
lhumerus -51.5903 -14.9551 94.7602
lradius 80.3083
lwrist -15.9544
lhand -53.1368 -35.762
lfingers 7.12502
lthumb -25.5968 -7.46219
rfemur 10.3354 -5.66518 12.0933
rtibia 35.5807
rfoot 11.8407 12.5362
rtoes -29.4967
lfemur -36.4326 12.6031 -27.5205
ltibia 34.7854
lfoot -8.646 -0.584003
ltoes -5.47536
147
root -18.69 18.9116 -8.42099 -357.217 370.081 -368.578
lowerback -0.33384 8.15572 9.15652
upperback 7.05672 10.8284 -3.01246
thorax 10.1451 6.16542 -7.11143
lowerneck -6.20851 -1.12523 4.98972
upperneck 1.35792 -1.84092 -1.21033
head 1.42441 -0.911574 -1.28748
rclavicle -1.76918e-013 5.40694e-014
rhumerus -31.4923 15.5757 -102.366
rradius 81.0027
rwrist 7.91956
rhand -31.0816 28.8088
rfingers 7.12502
rthumb -4.36197 -1.12629
lclavicle -1.76918e-013 5.40694e-014
lhumerus -50.8658 -14.0416 94.5595
lradius 80.9163
lwrist -15.71
lhand -52.986 -35.281
lfingers 7.12502
lthumb -25.4524 -6.96044
rfemur 9.69565 -5.43266 11.894
rtibia 38.5414
rfoot 12.3915 12.5405
rtoes -27.9838
lfemur -35.6392 12.4258 -27.5886
ltibia 34.6817
lfoot -8.41941 -0.615742
ltoes -4.55519
148
root -18.584 18.867 -8.15381 -357.639 370.669 -368.672
lowerback -0.385567 8.02158 9.17005
upperback 7.17017 10.6505 -3.06947
thorax 10.2818 6.09401 -7.19347
lowerneck -6.0463 -1.09629 4.88901
upperneck 1.28698 -1.79024 -1.05031
head 1.37568 -0.88431 -1.21416
rclavicle 6.99722e-014 -5.725e-014
rhumerus -32.2973 15.0229 -102.624
rradius 79.2554
rwrist 8.35979
rhand -30.7331 28.5549
rfingers 7.12502
rthumb -4.0254 -1.38683
lclavicle 6.99722e-014 -5.725e-014
lhumerus -50.0431 -13.2163 94.4147
lradius 81.5238
lwrist -15.3267
lhand -52.9872 -35.2304
lfingers 7.12502
lthumb -25.4535 -6.91005
rfemur 9.11529 -5.30015 11.6474
rtibia 41.5285
rfoot 12.6773 12.4896
rtoes -26.5254
lfemur -34.7877 11.9346 -27.5664
ltibia 34.9561
lfoot -8.22351 -0.352726
ltoes -2.47955
149
root -18.4804 18.8113 -7.88963 -358.142 371.306 -368.796
lowerback -0.319649 7.867 9.19483
upperback 7.31536 10.4519 -3.10041
thorax 10.377 6.01313 -7.27178
lowerneck -6.08401 -1.07095 4.75499
upperneck 1.30283 -1.7543 -0.848586
head 1.38982 -0.862672 -1.12622
rclavicle 7.91163e-014 -2.3059e-014
rhumerus -32.995 14.3296 -102.792
rradius 77.411
rwrist 8.87001
rhand -30.5296 28.518
rfingers 7.12502
rthumb -3.82887 -1.42736
lclavicle 7.91163e-014 -2.3059e-014
lhumerus -49.1415 -12.5388 94.307
lradius 82.0945
lwrist -14.965
lhand -52.9974 -34.5288
lfingers 7.12502
lthumb -25.4632 -6.20985
rfemur 8.61594 -5.23837 11.3987
rtibia 44.5345
rfoot 12.7883 12.4267
rtoes -25.1883
lfemur -33.9381 11.3653 -27.4835
ltibia 35.5916
lfoot -8.41117 -0.126369
ltoes -1.34018
150
root -18.3788 18.7382 -7.62943 -358.629 372.034 -368.943
lowerback -0.249802 7.67147 9.1912
upperback 7.46186 10.1955 -3.08941
thorax 10.4422 5.89802 -7.2994
lowerneck -6.18583 -1.02258 4.50531
upperneck 1.2961 -1.68483 -0.542984
head 1.40971 -0.823014 -0.985182
rclavicle -7.67309e-014 1.82882e-014
rhumerus -33.5993 13.5701 -102.825
rradius 75.4642
rwrist 9.36736
rhand -30.3828 28.5489
rfingers 7.12502
rthumb -3.68716 -1.39899
lclavicle -7.67309e-014 1.82882e-014
lhumerus -48.2021 -11.8785 94.2465
lradius 82.6373
lwrist -14.6088
lhand -53.0071 -33.7526
lfingers 7.12502
lthumb -25.4726 -5.43498
rfemur 8.08553 -5.25917 11.1729
rtibia 47.5821
rfoot 12.7107 12.4674
rtoes -24.622
lfemur -33.2021 10.7295 -27.4337
ltibia 36.538
lfoot -8.80462 0.0934227
ltoes -0.565161
151
root -18.2798 18.6513 -7.37594 -359.128 372.798 -369.046
lowerback -0.107082 7.45748 9.15885
upperback 7.63211 9.92365 -3.10477
thorax 10.4877 5.7762 -7.3504
lowerneck -6.36854 -0.958326 4.15663
upperneck 1.26042 -1.59548 -0.027982
head 1.43604 -0.769477 -0.761662
rclavicle -1.24439e-013 5.88403e-014
rhumerus -34.0734 12.6513 -102.801
rradius 73.4591
rwrist 9.7103
rhand -30.2195 28.8578
rfingers 7.12502
rthumb -3.52947 -1.09271
lclavicle -1.24439e-013 5.88403e-014
lhumerus -47.1892 -11.3635 94.184
lradius 83.256
lwrist -14.1781
lhand -53.0804 -33.014
lfingers 7.12502
lthumb -25.5428 -4.70637
rfemur 7.51338 -5.31659 10.885
rtibia 50.6901
rfoot 12.5755 12.5533
rtoes -24.1651
lfemur -32.5166 10.0524 -27.4895
ltibia 37.7135
lfoot -9.40919 0.397082
ltoes 0.907832
